<svg width="502" height="367" viewBox="0 0 502 367" fill="none" xmlns="http://www.w3.org/2000/svg">
<path d="M45.8047 70.9453V81H14.3086V70.9453H45.8047ZM18.4766 18.4375V81H5.58594V18.4375H18.4766ZM73.8203 81.8594C70.2109 81.8594 66.974 81.2865 64.1094 80.1406C61.2448 78.9661 58.8099 77.3477 56.8047 75.2852C54.8281 73.2227 53.3099 70.8307 52.25 68.1094C51.1901 65.3594 50.6602 62.4375 50.6602 59.3438V57.625C50.6602 54.1016 51.1615 50.8789 52.1641 47.957C53.1667 45.0352 54.599 42.5 56.4609 40.3516C58.3516 38.2031 60.6432 36.556 63.3359 35.4102C66.0286 34.2357 69.0651 33.6484 72.4453 33.6484C75.7396 33.6484 78.6615 34.1927 81.2109 35.2812C83.7604 36.3698 85.8945 37.9167 87.6133 39.9219C89.3607 41.9271 90.6784 44.3333 91.5664 47.1406C92.4544 49.9193 92.8984 53.013 92.8984 56.4219V61.5781H55.9453V53.3281H80.7383V52.3828C80.7383 50.6641 80.4232 49.1315 79.793 47.7852C79.1914 46.4102 78.2747 45.3216 77.043 44.5195C75.8112 43.7174 74.2357 43.3164 72.3164 43.3164C70.6836 43.3164 69.2799 43.6745 68.1055 44.3906C66.931 45.1068 65.9714 46.1094 65.2266 47.3984C64.5104 48.6875 63.9661 50.2057 63.5938 51.9531C63.25 53.6719 63.0781 55.5625 63.0781 57.625V59.3438C63.0781 61.2057 63.3359 62.9245 63.8516 64.5C64.3958 66.0755 65.1549 67.4362 66.1289 68.582C67.1315 69.7279 68.3346 70.6159 69.7383 71.2461C71.1706 71.8763 72.7891 72.1914 74.5938 72.1914C76.8281 72.1914 78.9049 71.7617 80.8242 70.9023C82.7721 70.0143 84.4479 68.6823 85.8516 66.9062L91.8672 73.4375C90.8932 74.8411 89.5612 76.1875 87.8711 77.4766C86.2096 78.7656 84.2044 79.8255 81.8555 80.6562C79.5065 81.4583 76.8281 81.8594 73.8203 81.8594ZM122.719 34.5078V43.2734H95.6484V34.5078H122.719ZM102.352 23.0352H114.727V66.9922C114.727 68.3385 114.898 69.3698 115.242 70.0859C115.615 70.8021 116.159 71.3034 116.875 71.5898C117.591 71.8477 118.493 71.9766 119.582 71.9766C120.355 71.9766 121.043 71.9479 121.645 71.8906C122.275 71.8047 122.805 71.7188 123.234 71.6328L123.277 80.7422C122.217 81.0859 121.072 81.3581 119.84 81.5586C118.608 81.7591 117.247 81.8594 115.758 81.8594C113.036 81.8594 110.659 81.4154 108.625 80.5273C106.62 79.6107 105.073 78.1497 103.984 76.1445C102.896 74.1393 102.352 71.5039 102.352 68.2383V23.0352ZM141.754 15V21.5312C141.754 23.3932 141.396 25.3125 140.68 27.2891C139.992 29.2656 139.061 31.1419 137.887 32.918C136.712 34.6654 135.423 36.1549 134.02 37.3867L128.219 34.0352C129.279 32.3451 130.181 30.5117 130.926 28.5352C131.671 26.5299 132.043 24.2096 132.043 21.5742V15H141.754ZM167.449 68.1523C167.449 67.2643 167.191 66.4622 166.676 65.7461C166.16 65.0299 165.201 64.3711 163.797 63.7695C162.422 63.1393 160.431 62.5664 157.824 62.0508C155.475 61.5352 153.284 60.8906 151.25 60.1172C149.245 59.3151 147.497 58.3555 146.008 57.2383C144.547 56.1211 143.401 54.8034 142.57 53.2852C141.74 51.7383 141.324 49.9766 141.324 48C141.324 46.0521 141.74 44.2188 142.57 42.5C143.43 40.7812 144.647 39.263 146.223 37.9453C147.827 36.599 149.775 35.5534 152.066 34.8086C154.387 34.0352 156.993 33.6484 159.887 33.6484C163.926 33.6484 167.392 34.293 170.285 35.582C173.207 36.8711 175.441 38.6471 176.988 40.9102C178.564 43.1445 179.352 45.694 179.352 48.5586H166.977C166.977 47.3555 166.719 46.2812 166.203 45.3359C165.716 44.362 164.943 43.6029 163.883 43.0586C162.852 42.4857 161.505 42.1992 159.844 42.1992C158.469 42.1992 157.28 42.4427 156.277 42.9297C155.275 43.388 154.501 44.0182 153.957 44.8203C153.441 45.5938 153.184 46.4531 153.184 47.3984C153.184 48.1146 153.327 48.7591 153.613 49.332C153.928 49.8763 154.43 50.3776 155.117 50.8359C155.805 51.2943 156.693 51.724 157.781 52.125C158.898 52.4974 160.273 52.8411 161.906 53.1562C165.258 53.8438 168.251 54.7461 170.887 55.8633C173.522 56.9518 175.613 58.4414 177.16 60.332C178.707 62.194 179.48 64.6432 179.48 67.6797C179.48 69.7422 179.022 71.6328 178.105 73.3516C177.189 75.0703 175.871 76.5742 174.152 77.8633C172.434 79.1237 170.371 80.112 167.965 80.8281C165.587 81.5156 162.909 81.8594 159.93 81.8594C155.604 81.8594 151.938 81.0859 148.93 79.5391C145.951 77.9922 143.688 76.0299 142.141 73.6523C140.622 71.2461 139.863 68.7826 139.863 66.2617H151.594C151.651 67.9518 152.081 69.3125 152.883 70.3438C153.714 71.375 154.759 72.1198 156.02 72.5781C157.309 73.0365 158.698 73.2656 160.188 73.2656C161.792 73.2656 163.124 73.0508 164.184 72.6211C165.243 72.1628 166.046 71.5612 166.59 70.8164C167.163 70.043 167.449 69.1549 167.449 68.1523ZM250.422 70.9453V81H218.926V70.9453H250.422ZM223.094 18.4375V81H210.203V18.4375H223.094ZM278.438 81.8594C274.828 81.8594 271.591 81.2865 268.727 80.1406C265.862 78.9661 263.427 77.3477 261.422 75.2852C259.445 73.2227 257.927 70.8307 256.867 68.1094C255.807 65.3594 255.277 62.4375 255.277 59.3438V57.625C255.277 54.1016 255.779 50.8789 256.781 47.957C257.784 45.0352 259.216 42.5 261.078 40.3516C262.969 38.2031 265.26 36.556 267.953 35.4102C270.646 34.2357 273.682 33.6484 277.062 33.6484C280.357 33.6484 283.279 34.1927 285.828 35.2812C288.378 36.3698 290.512 37.9167 292.23 39.9219C293.978 41.9271 295.296 44.3333 296.184 47.1406C297.072 49.9193 297.516 53.013 297.516 56.4219V61.5781H260.562V53.3281H285.355V52.3828C285.355 50.6641 285.04 49.1315 284.41 47.7852C283.809 46.4102 282.892 45.3216 281.66 44.5195C280.428 43.7174 278.853 43.3164 276.934 43.3164C275.301 43.3164 273.897 43.6745 272.723 44.3906C271.548 45.1068 270.589 46.1094 269.844 47.3984C269.128 48.6875 268.583 50.2057 268.211 51.9531C267.867 53.6719 267.695 55.5625 267.695 57.625V59.3438C267.695 61.2057 267.953 62.9245 268.469 64.5C269.013 66.0755 269.772 67.4362 270.746 68.582C271.749 69.7279 272.952 70.6159 274.355 71.2461C275.788 71.8763 277.406 72.1914 279.211 72.1914C281.445 72.1914 283.522 71.7617 285.441 70.9023C287.389 70.0143 289.065 68.6823 290.469 66.9062L296.484 73.4375C295.51 74.8411 294.178 76.1875 292.488 77.4766C290.827 78.7656 288.822 79.8255 286.473 80.6562C284.124 81.4583 281.445 81.8594 278.438 81.8594ZM329.656 70.5156V49.8047C329.656 48.3151 329.413 47.0404 328.926 45.9805C328.439 44.8919 327.68 44.0469 326.648 43.4453C325.646 42.8438 324.342 42.543 322.738 42.543C321.363 42.543 320.174 42.7865 319.172 43.2734C318.169 43.7318 317.396 44.4049 316.852 45.293C316.307 46.1523 316.035 47.1693 316.035 48.3438H303.66C303.66 46.3672 304.118 44.4909 305.035 42.7148C305.952 40.9388 307.284 39.3776 309.031 38.0312C310.779 36.6562 312.855 35.582 315.262 34.8086C317.697 34.0352 320.418 33.6484 323.426 33.6484C327.035 33.6484 330.243 34.25 333.051 35.4531C335.858 36.6562 338.064 38.4609 339.668 40.8672C341.301 43.2734 342.117 46.2812 342.117 49.8906V69.7852C342.117 72.3346 342.275 74.4258 342.59 76.0586C342.905 77.6628 343.363 79.0664 343.965 80.2695V81H331.461C330.859 79.7396 330.401 78.1641 330.086 76.2734C329.799 74.3542 329.656 72.4349 329.656 70.5156ZM331.289 52.6836L331.375 59.6875H324.457C322.824 59.6875 321.406 59.8737 320.203 60.2461C319 60.6185 318.012 61.1484 317.238 61.8359C316.465 62.4948 315.892 63.2682 315.52 64.1562C315.176 65.0443 315.004 66.0182 315.004 67.0781C315.004 68.138 315.247 69.0977 315.734 69.957C316.221 70.7878 316.923 71.4466 317.84 71.9336C318.757 72.3919 319.831 72.6211 321.062 72.6211C322.924 72.6211 324.543 72.2487 325.918 71.5039C327.293 70.7591 328.353 69.8424 329.098 68.7539C329.871 67.6654 330.272 66.6341 330.301 65.6602L333.566 70.9023C333.108 72.0768 332.478 73.2943 331.676 74.5547C330.902 75.8151 329.914 77.0039 328.711 78.1211C327.508 79.2096 326.061 80.112 324.371 80.8281C322.681 81.5156 320.676 81.8594 318.355 81.8594C315.405 81.8594 312.727 81.2721 310.32 80.0977C307.943 78.8945 306.052 77.2474 304.648 75.1562C303.273 73.0365 302.586 70.6302 302.586 67.9375C302.586 65.5026 303.044 63.3398 303.961 61.4492C304.878 59.5586 306.224 57.9688 308 56.6797C309.805 55.362 312.053 54.3737 314.746 53.7148C317.439 53.0273 320.561 52.6836 324.113 52.6836H331.289ZM364.031 44.6484V81H351.656V34.5078H363.301L364.031 44.6484ZM378.039 34.207L377.824 45.6797C377.223 45.5938 376.492 45.5221 375.633 45.4648C374.802 45.3789 374.043 45.3359 373.355 45.3359C371.608 45.3359 370.09 45.5651 368.801 46.0234C367.54 46.4531 366.48 47.0977 365.621 47.957C364.79 48.8164 364.16 49.862 363.73 51.0938C363.329 52.3255 363.1 53.7292 363.043 55.3047L360.551 54.5312C360.551 51.5234 360.852 48.7591 361.453 46.2383C362.055 43.6888 362.928 41.4688 364.074 39.5781C365.249 37.6875 366.681 36.2266 368.371 35.1953C370.061 34.1641 371.995 33.6484 374.172 33.6484C374.859 33.6484 375.561 33.7057 376.277 33.8203C376.993 33.9062 377.581 34.0352 378.039 34.207ZM396 44.4336V81H383.625V34.5078H395.227L396 44.4336ZM394.195 56.1211H390.844C390.844 52.6836 391.288 49.5898 392.176 46.8398C393.064 44.0612 394.31 41.6979 395.914 39.75C397.518 37.7734 399.423 36.2695 401.629 35.2383C403.863 34.1784 406.355 33.6484 409.105 33.6484C411.283 33.6484 413.273 33.9635 415.078 34.5938C416.883 35.224 418.43 36.2266 419.719 37.6016C421.036 38.9766 422.039 40.7956 422.727 43.0586C423.443 45.3216 423.801 48.0859 423.801 51.3516V81H411.34V51.3086C411.34 49.2461 411.053 47.6419 410.48 46.4961C409.908 45.3503 409.062 44.5482 407.945 44.0898C406.857 43.6029 405.51 43.3594 403.906 43.3594C402.245 43.3594 400.798 43.6888 399.566 44.3477C398.363 45.0065 397.361 45.9232 396.559 47.0977C395.785 48.2435 395.198 49.5898 394.797 51.1367C394.396 52.6836 394.195 54.3451 394.195 56.1211ZM14.6523 135.527L26.6836 127.75C28.4596 126.576 29.6484 125.444 30.25 124.355C30.8516 123.267 31.1523 122.049 31.1523 120.703C31.1523 119.357 30.651 118.111 29.6484 116.965C28.6458 115.79 27.2422 115.203 25.4375 115.203C24.1484 115.203 23.0599 115.504 22.1719 116.105C21.2839 116.678 20.6107 117.452 20.1523 118.426C19.7227 119.4 19.5078 120.488 19.5078 121.691C19.5078 122.98 19.8516 124.298 20.5391 125.645C21.2266 126.962 22.1576 128.366 23.332 129.855C24.5065 131.316 25.8099 132.906 27.2422 134.625L56.7617 169H42.7109L18.6484 141.156C16.6146 138.635 14.8385 136.329 13.3203 134.238C11.8021 132.118 10.6133 130.056 9.75391 128.051C8.89453 126.046 8.46484 123.983 8.46484 121.863C8.46484 118.598 9.16667 115.747 10.5703 113.312C11.974 110.849 13.9505 108.944 16.5 107.598C19.0495 106.223 22.043 105.535 25.4805 105.535C28.7174 105.535 31.5247 106.208 33.9023 107.555C36.2799 108.872 38.1133 110.62 39.4023 112.797C40.7201 114.974 41.3789 117.366 41.3789 119.973C41.3789 121.921 41.0208 123.725 40.3047 125.387C39.5885 127.02 38.6003 128.538 37.3398 129.941C36.0794 131.316 34.6328 132.591 33 133.766L19.293 143.52C18.2331 144.493 17.431 145.453 16.8867 146.398C16.3424 147.344 15.9701 148.246 15.7695 149.105C15.569 149.936 15.4688 150.738 15.4688 151.512C15.4688 153.173 15.8268 154.663 16.543 155.98C17.2591 157.298 18.2617 158.329 19.5508 159.074C20.8398 159.819 22.3438 160.191 24.0625 160.191C26.4115 160.191 28.6888 159.676 30.8945 158.645C33.1003 157.613 35.0768 156.138 36.8242 154.219C38.5716 152.271 39.9609 149.965 40.9922 147.301C42.0234 144.637 42.5391 141.701 42.5391 138.492H53.0234C53.0234 141.701 52.7083 144.751 52.0781 147.645C51.4479 150.509 50.431 153.173 49.0273 155.637C47.6237 158.072 45.7617 160.234 43.4414 162.125C43.2695 162.268 43.026 162.483 42.7109 162.77C42.4245 163.027 42.181 163.228 41.9805 163.371C39.2305 165.577 36.3659 167.224 33.3867 168.312C30.4076 169.372 27.0846 169.902 23.418 169.902C19.2357 169.902 15.612 169.143 12.5469 167.625C9.51042 166.107 7.16146 164.016 5.5 161.352C3.86719 158.688 3.05078 155.637 3.05078 152.199C3.05078 149.678 3.53776 147.487 4.51172 145.625C5.51432 143.734 6.88932 141.987 8.63672 140.383C10.3841 138.779 12.3893 137.16 14.6523 135.527ZM127.402 158.945V169H94.1016V158.945H127.402ZM98.3125 106.438V169H85.4219V106.438H98.3125ZM123.062 131.918V141.715H94.1016V131.918H123.062ZM127.359 106.438V116.535H94.1016V106.438H127.359ZM159.242 158.516V137.805C159.242 136.315 158.999 135.04 158.512 133.98C158.025 132.892 157.266 132.047 156.234 131.445C155.232 130.844 153.928 130.543 152.324 130.543C150.949 130.543 149.76 130.786 148.758 131.273C147.755 131.732 146.982 132.405 146.438 133.293C145.893 134.152 145.621 135.169 145.621 136.344H133.246C133.246 134.367 133.704 132.491 134.621 130.715C135.538 128.939 136.87 127.378 138.617 126.031C140.365 124.656 142.441 123.582 144.848 122.809C147.283 122.035 150.004 121.648 153.012 121.648C156.621 121.648 159.829 122.25 162.637 123.453C165.444 124.656 167.65 126.461 169.254 128.867C170.887 131.273 171.703 134.281 171.703 137.891V157.785C171.703 160.335 171.861 162.426 172.176 164.059C172.491 165.663 172.949 167.066 173.551 168.27V169H161.047C160.445 167.74 159.987 166.164 159.672 164.273C159.385 162.354 159.242 160.435 159.242 158.516ZM160.875 140.684L160.961 147.688H154.043C152.41 147.688 150.992 147.874 149.789 148.246C148.586 148.618 147.598 149.148 146.824 149.836C146.051 150.495 145.478 151.268 145.105 152.156C144.762 153.044 144.59 154.018 144.59 155.078C144.59 156.138 144.833 157.098 145.32 157.957C145.807 158.788 146.509 159.447 147.426 159.934C148.342 160.392 149.417 160.621 150.648 160.621C152.51 160.621 154.129 160.249 155.504 159.504C156.879 158.759 157.939 157.842 158.684 156.754C159.457 155.665 159.858 154.634 159.887 153.66L163.152 158.902C162.694 160.077 162.064 161.294 161.262 162.555C160.488 163.815 159.5 165.004 158.297 166.121C157.094 167.21 155.647 168.112 153.957 168.828C152.267 169.516 150.262 169.859 147.941 169.859C144.991 169.859 142.312 169.272 139.906 168.098C137.529 166.895 135.638 165.247 134.234 163.156C132.859 161.036 132.172 158.63 132.172 155.938C132.172 153.503 132.63 151.34 133.547 149.449C134.464 147.559 135.81 145.969 137.586 144.68C139.391 143.362 141.639 142.374 144.332 141.715C147.025 141.027 150.147 140.684 153.699 140.684H160.875ZM193.617 132.648V169H181.242V122.508H192.887L193.617 132.648ZM207.625 122.207L207.41 133.68C206.809 133.594 206.078 133.522 205.219 133.465C204.388 133.379 203.629 133.336 202.941 133.336C201.194 133.336 199.676 133.565 198.387 134.023C197.126 134.453 196.066 135.098 195.207 135.957C194.376 136.816 193.746 137.862 193.316 139.094C192.915 140.326 192.686 141.729 192.629 143.305L190.137 142.531C190.137 139.523 190.438 136.759 191.039 134.238C191.641 131.689 192.514 129.469 193.66 127.578C194.835 125.688 196.267 124.227 197.957 123.195C199.647 122.164 201.581 121.648 203.758 121.648C204.445 121.648 205.147 121.706 205.863 121.82C206.579 121.906 207.167 122.035 207.625 122.207ZM225.586 132.434V169H213.211V122.508H224.812L225.586 132.434ZM223.781 144.121H220.43C220.43 140.684 220.874 137.59 221.762 134.84C222.65 132.061 223.896 129.698 225.5 127.75C227.104 125.773 229.009 124.27 231.215 123.238C233.449 122.178 235.941 121.648 238.691 121.648C240.868 121.648 242.859 121.964 244.664 122.594C246.469 123.224 248.016 124.227 249.305 125.602C250.622 126.977 251.625 128.796 252.312 131.059C253.029 133.322 253.387 136.086 253.387 139.352V169H240.926V139.309C240.926 137.246 240.639 135.642 240.066 134.496C239.493 133.35 238.648 132.548 237.531 132.09C236.443 131.603 235.096 131.359 233.492 131.359C231.831 131.359 230.384 131.689 229.152 132.348C227.949 133.007 226.947 133.923 226.145 135.098C225.371 136.243 224.784 137.59 224.383 139.137C223.982 140.684 223.781 142.345 223.781 144.121Z" fill="#1A202C"/>
<path d="M24.3164 266.84V277.25C23.9648 277.771 23.4049 278.357 22.6367 279.008C21.8685 279.646 20.8073 280.206 19.4531 280.688C18.112 281.156 16.3802 281.391 14.2578 281.391C12.526 281.391 10.931 281.091 9.47266 280.492C8.02734 279.88 6.77083 278.995 5.70312 277.836C4.64844 276.664 3.82812 275.245 3.24219 273.578C2.66927 271.898 2.38281 269.997 2.38281 267.875V265.668C2.38281 263.546 2.63021 261.651 3.125 259.984C3.63281 258.318 4.375 256.905 5.35156 255.746C6.32812 254.574 7.52604 253.689 8.94531 253.09C10.3646 252.478 11.9922 252.172 13.8281 252.172C16.0026 252.172 17.819 252.549 19.2773 253.305C20.7487 254.047 21.8945 255.076 22.7148 256.391C23.5482 257.706 24.082 259.203 24.3164 260.883H20.5469C20.3776 259.854 20.0391 258.917 19.5312 258.07C19.0365 257.224 18.3268 256.547 17.4023 256.039C16.4779 255.518 15.2865 255.258 13.8281 255.258C12.513 255.258 11.3737 255.499 10.4102 255.98C9.44661 256.462 8.65234 257.152 8.02734 258.051C7.40234 258.949 6.93359 260.036 6.62109 261.312C6.32161 262.589 6.17188 264.027 6.17188 265.629V267.875C6.17188 269.516 6.36068 270.98 6.73828 272.27C7.12891 273.559 7.68229 274.659 8.39844 275.57C9.11458 276.469 9.96745 277.152 10.957 277.621C11.9596 278.09 13.0664 278.324 14.2773 278.324C15.6185 278.324 16.7057 278.214 17.5391 277.992C18.3724 277.758 19.0234 277.484 19.4922 277.172C19.9609 276.846 20.319 276.54 20.5664 276.254V269.887H13.9844V266.84H24.3164ZM38.7891 281.391C37.3177 281.391 35.9831 281.143 34.7852 280.648C33.6003 280.141 32.5781 279.431 31.7188 278.52C30.8724 277.608 30.2214 276.527 29.7656 275.277C29.3099 274.027 29.082 272.66 29.082 271.176V270.355C29.082 268.637 29.3359 267.107 29.8438 265.766C30.3516 264.411 31.0417 263.266 31.9141 262.328C32.7865 261.391 33.776 260.681 34.8828 260.199C35.9896 259.717 37.1354 259.477 38.3203 259.477C39.8307 259.477 41.1328 259.737 42.2266 260.258C43.3333 260.779 44.2383 261.508 44.9414 262.445C45.6445 263.37 46.1654 264.464 46.5039 265.727C46.8424 266.977 47.0117 268.344 47.0117 269.828V271.449H31.2305V268.5H43.3984V268.227C43.3464 267.289 43.151 266.378 42.8125 265.492C42.487 264.607 41.9661 263.878 41.25 263.305C40.5339 262.732 39.5573 262.445 38.3203 262.445C37.5 262.445 36.7448 262.621 36.0547 262.973C35.3646 263.311 34.7721 263.819 34.2773 264.496C33.7826 265.173 33.3984 266 33.125 266.977C32.8516 267.953 32.7148 269.079 32.7148 270.355V271.176C32.7148 272.178 32.8516 273.122 33.125 274.008C33.4115 274.88 33.8216 275.648 34.3555 276.312C34.9023 276.977 35.5599 277.497 36.3281 277.875C37.1094 278.253 37.9948 278.441 38.9844 278.441C40.2604 278.441 41.3411 278.181 42.2266 277.66C43.112 277.139 43.8867 276.443 44.5508 275.57L46.7383 277.309C46.2826 277.999 45.7031 278.656 45 279.281C44.2969 279.906 43.431 280.414 42.4023 280.805C41.3867 281.195 40.1823 281.391 38.7891 281.391ZM60.0781 259.867V262.641H48.6523V259.867H60.0781ZM52.5195 254.73H56.1328V275.766C56.1328 276.482 56.2435 277.022 56.4648 277.387C56.6862 277.751 56.9727 277.992 57.3242 278.109C57.6758 278.227 58.0534 278.285 58.457 278.285C58.7565 278.285 59.069 278.259 59.3945 278.207C59.7331 278.142 59.987 278.09 60.1562 278.051L60.1758 281C59.8893 281.091 59.5117 281.176 59.043 281.254C58.5872 281.345 58.0339 281.391 57.3828 281.391C56.4974 281.391 55.6836 281.215 54.9414 280.863C54.1992 280.512 53.6068 279.926 53.1641 279.105C52.7344 278.272 52.5195 277.152 52.5195 275.746V254.73ZM86.6992 277.387V266.508C86.6992 265.674 86.5299 264.952 86.1914 264.34C85.8659 263.715 85.3711 263.233 84.707 262.895C84.043 262.556 83.2227 262.387 82.2461 262.387C81.3346 262.387 80.5339 262.543 79.8438 262.855C79.1667 263.168 78.6328 263.578 78.2422 264.086C77.8646 264.594 77.6758 265.141 77.6758 265.727H74.0625C74.0625 264.971 74.2578 264.223 74.6484 263.48C75.0391 262.738 75.599 262.068 76.3281 261.469C77.0703 260.857 77.9557 260.375 78.9844 260.023C80.026 259.659 81.1849 259.477 82.4609 259.477C83.9974 259.477 85.3516 259.737 86.5234 260.258C87.7083 260.779 88.6328 261.566 89.2969 262.621C89.974 263.663 90.3125 264.971 90.3125 266.547V276.391C90.3125 277.094 90.3711 277.842 90.4883 278.637C90.6185 279.431 90.8073 280.115 91.0547 280.688V281H87.2852C87.1029 280.583 86.9596 280.03 86.8555 279.34C86.7513 278.637 86.6992 277.986 86.6992 277.387ZM87.3242 268.188L87.3633 270.727H83.7109C82.6823 270.727 81.7643 270.811 80.957 270.98C80.1497 271.137 79.4727 271.378 78.9258 271.703C78.3789 272.029 77.9622 272.439 77.6758 272.934C77.3893 273.415 77.2461 273.982 77.2461 274.633C77.2461 275.297 77.3958 275.902 77.6953 276.449C77.9948 276.996 78.444 277.432 79.043 277.758C79.6549 278.07 80.4036 278.227 81.2891 278.227C82.3958 278.227 83.3724 277.992 84.2188 277.523C85.0651 277.055 85.7357 276.482 86.2305 275.805C86.7383 275.128 87.0117 274.47 87.0508 273.832L88.5938 275.57C88.5026 276.117 88.2552 276.723 87.8516 277.387C87.4479 278.051 86.9076 278.689 86.2305 279.301C85.5664 279.9 84.7721 280.401 83.8477 280.805C82.9362 281.195 81.9076 281.391 80.7617 281.391C79.3294 281.391 78.0729 281.111 76.9922 280.551C75.9245 279.991 75.0911 279.242 74.4922 278.305C73.9062 277.354 73.6133 276.293 73.6133 275.121C73.6133 273.988 73.8346 272.992 74.2773 272.133C74.7201 271.26 75.3581 270.538 76.1914 269.965C77.0247 269.379 78.0273 268.936 79.1992 268.637C80.3711 268.337 81.6797 268.188 83.125 268.188H87.3242ZM114.375 278.422C115.234 278.422 116.029 278.246 116.758 277.895C117.487 277.543 118.086 277.061 118.555 276.449C119.023 275.824 119.29 275.115 119.355 274.32H122.793C122.728 275.57 122.305 276.736 121.523 277.816C120.755 278.884 119.746 279.75 118.496 280.414C117.246 281.065 115.872 281.391 114.375 281.391C112.786 281.391 111.4 281.111 110.215 280.551C109.043 279.991 108.066 279.223 107.285 278.246C106.517 277.27 105.938 276.15 105.547 274.887C105.169 273.611 104.98 272.263 104.98 270.844V270.023C104.98 268.604 105.169 267.263 105.547 266C105.938 264.724 106.517 263.598 107.285 262.621C108.066 261.645 109.043 260.876 110.215 260.316C111.4 259.757 112.786 259.477 114.375 259.477C116.029 259.477 117.474 259.815 118.711 260.492C119.948 261.156 120.918 262.068 121.621 263.227C122.337 264.372 122.728 265.674 122.793 267.133H119.355C119.29 266.26 119.043 265.473 118.613 264.77C118.197 264.066 117.624 263.507 116.895 263.09C116.178 262.66 115.339 262.445 114.375 262.445C113.268 262.445 112.337 262.667 111.582 263.109C110.84 263.539 110.247 264.125 109.805 264.867C109.375 265.596 109.062 266.41 108.867 267.309C108.685 268.194 108.594 269.099 108.594 270.023V270.844C108.594 271.768 108.685 272.68 108.867 273.578C109.049 274.477 109.355 275.29 109.785 276.02C110.228 276.749 110.82 277.335 111.562 277.777C112.318 278.207 113.255 278.422 114.375 278.422ZM130.469 251V281H126.855V251H130.469ZM129.609 269.633L128.105 269.574C128.118 268.129 128.333 266.794 128.75 265.57C129.167 264.333 129.753 263.259 130.508 262.348C131.263 261.436 132.161 260.733 133.203 260.238C134.258 259.73 135.423 259.477 136.699 259.477C137.741 259.477 138.678 259.62 139.512 259.906C140.345 260.18 141.055 260.622 141.641 261.234C142.24 261.846 142.695 262.641 143.008 263.617C143.32 264.581 143.477 265.759 143.477 267.152V281H139.844V267.113C139.844 266.007 139.681 265.121 139.355 264.457C139.03 263.78 138.555 263.292 137.93 262.992C137.305 262.68 136.536 262.523 135.625 262.523C134.727 262.523 133.906 262.712 133.164 263.09C132.435 263.467 131.803 263.988 131.27 264.652C130.749 265.316 130.339 266.078 130.039 266.938C129.753 267.784 129.609 268.682 129.609 269.633ZM161.348 277.387V266.508C161.348 265.674 161.178 264.952 160.84 264.34C160.514 263.715 160.02 263.233 159.355 262.895C158.691 262.556 157.871 262.387 156.895 262.387C155.983 262.387 155.182 262.543 154.492 262.855C153.815 263.168 153.281 263.578 152.891 264.086C152.513 264.594 152.324 265.141 152.324 265.727H148.711C148.711 264.971 148.906 264.223 149.297 263.48C149.688 262.738 150.247 262.068 150.977 261.469C151.719 260.857 152.604 260.375 153.633 260.023C154.674 259.659 155.833 259.477 157.109 259.477C158.646 259.477 160 259.737 161.172 260.258C162.357 260.779 163.281 261.566 163.945 262.621C164.622 263.663 164.961 264.971 164.961 266.547V276.391C164.961 277.094 165.02 277.842 165.137 278.637C165.267 279.431 165.456 280.115 165.703 280.688V281H161.934C161.751 280.583 161.608 280.03 161.504 279.34C161.4 278.637 161.348 277.986 161.348 277.387ZM161.973 268.188L162.012 270.727H158.359C157.331 270.727 156.413 270.811 155.605 270.98C154.798 271.137 154.121 271.378 153.574 271.703C153.027 272.029 152.611 272.439 152.324 272.934C152.038 273.415 151.895 273.982 151.895 274.633C151.895 275.297 152.044 275.902 152.344 276.449C152.643 276.996 153.092 277.432 153.691 277.758C154.303 278.07 155.052 278.227 155.938 278.227C157.044 278.227 158.021 277.992 158.867 277.523C159.714 277.055 160.384 276.482 160.879 275.805C161.387 275.128 161.66 274.47 161.699 273.832L163.242 275.57C163.151 276.117 162.904 276.723 162.5 277.387C162.096 278.051 161.556 278.689 160.879 279.301C160.215 279.9 159.421 280.401 158.496 280.805C157.585 281.195 156.556 281.391 155.41 281.391C153.978 281.391 152.721 281.111 151.641 280.551C150.573 279.991 149.74 279.242 149.141 278.305C148.555 277.354 148.262 276.293 148.262 275.121C148.262 273.988 148.483 272.992 148.926 272.133C149.368 271.26 150.007 270.538 150.84 269.965C151.673 269.379 152.676 268.936 153.848 268.637C155.02 268.337 156.328 268.188 157.773 268.188H161.973ZM174.258 264.379V281H170.645V259.867H174.062L174.258 264.379ZM173.398 269.633L171.895 269.574C171.908 268.129 172.122 266.794 172.539 265.57C172.956 264.333 173.542 263.259 174.297 262.348C175.052 261.436 175.951 260.733 176.992 260.238C178.047 259.73 179.212 259.477 180.488 259.477C181.53 259.477 182.467 259.62 183.301 259.906C184.134 260.18 184.844 260.622 185.43 261.234C186.029 261.846 186.484 262.641 186.797 263.617C187.109 264.581 187.266 265.759 187.266 267.152V281H183.633V267.113C183.633 266.007 183.47 265.121 183.145 264.457C182.819 263.78 182.344 263.292 181.719 262.992C181.094 262.68 180.326 262.523 179.414 262.523C178.516 262.523 177.695 262.712 176.953 263.09C176.224 263.467 175.592 263.988 175.059 264.652C174.538 265.316 174.128 266.078 173.828 266.938C173.542 267.784 173.398 268.682 173.398 269.633ZM201.211 278.422C202.07 278.422 202.865 278.246 203.594 277.895C204.323 277.543 204.922 277.061 205.391 276.449C205.859 275.824 206.126 275.115 206.191 274.32H209.629C209.564 275.57 209.141 276.736 208.359 277.816C207.591 278.884 206.582 279.75 205.332 280.414C204.082 281.065 202.708 281.391 201.211 281.391C199.622 281.391 198.236 281.111 197.051 280.551C195.879 279.991 194.902 279.223 194.121 278.246C193.353 277.27 192.773 276.15 192.383 274.887C192.005 273.611 191.816 272.263 191.816 270.844V270.023C191.816 268.604 192.005 267.263 192.383 266C192.773 264.724 193.353 263.598 194.121 262.621C194.902 261.645 195.879 260.876 197.051 260.316C198.236 259.757 199.622 259.477 201.211 259.477C202.865 259.477 204.31 259.815 205.547 260.492C206.784 261.156 207.754 262.068 208.457 263.227C209.173 264.372 209.564 265.674 209.629 267.133H206.191C206.126 266.26 205.879 265.473 205.449 264.77C205.033 264.066 204.46 263.507 203.73 263.09C203.014 262.66 202.174 262.445 201.211 262.445C200.104 262.445 199.173 262.667 198.418 263.109C197.676 263.539 197.083 264.125 196.641 264.867C196.211 265.596 195.898 266.41 195.703 267.309C195.521 268.194 195.43 269.099 195.43 270.023V270.844C195.43 271.768 195.521 272.68 195.703 273.578C195.885 274.477 196.191 275.29 196.621 276.02C197.064 276.749 197.656 277.335 198.398 277.777C199.154 278.207 200.091 278.422 201.211 278.422ZM222.461 281.391C220.99 281.391 219.655 281.143 218.457 280.648C217.272 280.141 216.25 279.431 215.391 278.52C214.544 277.608 213.893 276.527 213.438 275.277C212.982 274.027 212.754 272.66 212.754 271.176V270.355C212.754 268.637 213.008 267.107 213.516 265.766C214.023 264.411 214.714 263.266 215.586 262.328C216.458 261.391 217.448 260.681 218.555 260.199C219.661 259.717 220.807 259.477 221.992 259.477C223.503 259.477 224.805 259.737 225.898 260.258C227.005 260.779 227.91 261.508 228.613 262.445C229.316 263.37 229.837 264.464 230.176 265.727C230.514 266.977 230.684 268.344 230.684 269.828V271.449H214.902V268.5H227.07V268.227C227.018 267.289 226.823 266.378 226.484 265.492C226.159 264.607 225.638 263.878 224.922 263.305C224.206 262.732 223.229 262.445 221.992 262.445C221.172 262.445 220.417 262.621 219.727 262.973C219.036 263.311 218.444 263.819 217.949 264.496C217.454 265.173 217.07 266 216.797 266.977C216.523 267.953 216.387 269.079 216.387 270.355V271.176C216.387 272.178 216.523 273.122 216.797 274.008C217.083 274.88 217.493 275.648 218.027 276.312C218.574 276.977 219.232 277.497 220 277.875C220.781 278.253 221.667 278.441 222.656 278.441C223.932 278.441 225.013 278.181 225.898 277.66C226.784 277.139 227.559 276.443 228.223 275.57L230.41 277.309C229.954 277.999 229.375 278.656 228.672 279.281C227.969 279.906 227.103 280.414 226.074 280.805C225.059 281.195 223.854 281.391 222.461 281.391ZM253.672 259.867V262.641H242.246V259.867H253.672ZM246.113 254.73H249.727V275.766C249.727 276.482 249.837 277.022 250.059 277.387C250.28 277.751 250.566 277.992 250.918 278.109C251.27 278.227 251.647 278.285 252.051 278.285C252.35 278.285 252.663 278.259 252.988 278.207C253.327 278.142 253.581 278.09 253.75 278.051L253.77 281C253.483 281.091 253.105 281.176 252.637 281.254C252.181 281.345 251.628 281.391 250.977 281.391C250.091 281.391 249.277 281.215 248.535 280.863C247.793 280.512 247.201 279.926 246.758 279.105C246.328 278.272 246.113 277.152 246.113 275.746V254.73ZM256.562 270.668V270.219C256.562 268.695 256.784 267.283 257.227 265.98C257.669 264.665 258.307 263.526 259.141 262.562C259.974 261.586 260.983 260.831 262.168 260.297C263.353 259.75 264.681 259.477 266.152 259.477C267.637 259.477 268.971 259.75 270.156 260.297C271.354 260.831 272.37 261.586 273.203 262.562C274.049 263.526 274.694 264.665 275.137 265.98C275.579 267.283 275.801 268.695 275.801 270.219V270.668C275.801 272.191 275.579 273.604 275.137 274.906C274.694 276.208 274.049 277.348 273.203 278.324C272.37 279.288 271.361 280.043 270.176 280.59C269.004 281.124 267.676 281.391 266.191 281.391C264.707 281.391 263.372 281.124 262.188 280.59C261.003 280.043 259.987 279.288 259.141 278.324C258.307 277.348 257.669 276.208 257.227 274.906C256.784 273.604 256.562 272.191 256.562 270.668ZM260.176 270.219V270.668C260.176 271.723 260.299 272.719 260.547 273.656C260.794 274.581 261.165 275.401 261.66 276.117C262.168 276.833 262.799 277.4 263.555 277.816C264.31 278.22 265.189 278.422 266.191 278.422C267.181 278.422 268.047 278.22 268.789 277.816C269.544 277.4 270.169 276.833 270.664 276.117C271.159 275.401 271.53 274.581 271.777 273.656C272.038 272.719 272.168 271.723 272.168 270.668V270.219C272.168 269.177 272.038 268.194 271.777 267.27C271.53 266.332 271.152 265.505 270.645 264.789C270.15 264.06 269.525 263.487 268.77 263.07C268.027 262.654 267.155 262.445 266.152 262.445C265.163 262.445 264.29 262.654 263.535 263.07C262.793 263.487 262.168 264.06 261.66 264.789C261.165 265.505 260.794 266.332 260.547 267.27C260.299 268.194 260.176 269.177 260.176 270.219ZM295.605 277.25L301.035 259.867H303.418L302.949 263.324L297.422 281H295.098L295.605 277.25ZM291.953 259.867L296.582 277.445L296.914 281H294.473L288.34 259.867H291.953ZM308.613 277.309L313.027 259.867H316.621L310.488 281H308.066L308.613 277.309ZM303.945 259.867L309.258 276.957L309.863 281H307.559L301.875 263.285L301.406 259.867H303.945ZM324.258 259.867V281H320.625V259.867H324.258ZM320.352 254.262C320.352 253.676 320.527 253.181 320.879 252.777C321.243 252.374 321.777 252.172 322.48 252.172C323.171 252.172 323.698 252.374 324.062 252.777C324.44 253.181 324.629 253.676 324.629 254.262C324.629 254.822 324.44 255.303 324.062 255.707C323.698 256.098 323.171 256.293 322.48 256.293C321.777 256.293 321.243 256.098 320.879 255.707C320.527 255.303 320.352 254.822 320.352 254.262ZM333.672 264.379V281H330.059V259.867H333.477L333.672 264.379ZM332.812 269.633L331.309 269.574C331.322 268.129 331.536 266.794 331.953 265.57C332.37 264.333 332.956 263.259 333.711 262.348C334.466 261.436 335.365 260.733 336.406 260.238C337.461 259.73 338.626 259.477 339.902 259.477C340.944 259.477 341.882 259.62 342.715 259.906C343.548 260.18 344.258 260.622 344.844 261.234C345.443 261.846 345.898 262.641 346.211 263.617C346.523 264.581 346.68 265.759 346.68 267.152V281H343.047V267.113C343.047 266.007 342.884 265.121 342.559 264.457C342.233 263.78 341.758 263.292 341.133 262.992C340.508 262.68 339.74 262.523 338.828 262.523C337.93 262.523 337.109 262.712 336.367 263.09C335.638 263.467 335.007 263.988 334.473 264.652C333.952 265.316 333.542 266.078 333.242 266.938C332.956 267.784 332.812 268.682 332.812 269.633ZM15.6836 341.117V324.867H19.3164V346H15.8594L15.6836 341.117ZM16.3672 336.664L17.8711 336.625C17.8711 338.031 17.7214 339.333 17.4219 340.531C17.1354 341.716 16.6667 342.745 16.0156 343.617C15.3646 344.49 14.5117 345.173 13.457 345.668C12.4023 346.15 11.1198 346.391 9.60938 346.391C8.58073 346.391 7.63672 346.241 6.77734 345.941C5.93099 345.642 5.20182 345.18 4.58984 344.555C3.97786 343.93 3.5026 343.116 3.16406 342.113C2.83854 341.111 2.67578 339.906 2.67578 338.5V324.867H6.28906V338.539C6.28906 339.49 6.39323 340.277 6.60156 340.902C6.82292 341.514 7.11589 342.003 7.48047 342.367C7.85807 342.719 8.27474 342.966 8.73047 343.109C9.19922 343.253 9.68099 343.324 10.1758 343.324C11.7122 343.324 12.9297 343.031 13.8281 342.445C14.7266 341.846 15.3711 341.046 15.7617 340.043C16.1654 339.027 16.3672 337.901 16.3672 336.664ZM28.4375 328.93V354.125H24.8047V324.867H28.125L28.4375 328.93ZM42.6758 335.258V335.668C42.6758 337.204 42.4935 338.63 42.1289 339.945C41.7643 341.247 41.2305 342.38 40.5273 343.344C39.8372 344.307 38.9844 345.056 37.9688 345.59C36.9531 346.124 35.7878 346.391 34.4727 346.391C33.1315 346.391 31.9466 346.169 30.918 345.727C29.8893 345.284 29.0169 344.639 28.3008 343.793C27.5846 342.947 27.0117 341.931 26.582 340.746C26.1654 339.561 25.8789 338.227 25.7227 336.742V334.555C25.8789 332.992 26.1719 331.592 26.6016 330.355C27.0312 329.118 27.5977 328.064 28.3008 327.191C29.0169 326.306 29.8828 325.635 30.8984 325.18C31.9141 324.711 33.0859 324.477 34.4141 324.477C35.7422 324.477 36.9206 324.737 37.9492 325.258C38.9779 325.766 39.8438 326.495 40.5469 327.445C41.25 328.396 41.7773 329.535 42.1289 330.863C42.4935 332.178 42.6758 333.643 42.6758 335.258ZM39.043 335.668V335.258C39.043 334.203 38.9323 333.214 38.7109 332.289C38.4896 331.352 38.1445 330.531 37.6758 329.828C37.2201 329.112 36.6341 328.552 35.918 328.148C35.2018 327.732 34.349 327.523 33.3594 327.523C32.4479 327.523 31.6536 327.68 30.9766 327.992C30.3125 328.305 29.7461 328.728 29.2773 329.262C28.8086 329.783 28.4245 330.382 28.125 331.059C27.8385 331.723 27.6237 332.413 27.4805 333.129V338.188C27.7409 339.099 28.1055 339.958 28.5742 340.766C29.043 341.56 29.668 342.204 30.4492 342.699C31.2305 343.181 32.2135 343.422 33.3984 343.422C34.375 343.422 35.2148 343.22 35.918 342.816C36.6341 342.4 37.2201 341.833 37.6758 341.117C38.1445 340.401 38.4896 339.581 38.7109 338.656C38.9323 337.719 39.043 336.723 39.043 335.668ZM54.8047 332.426V335.395H45.2734V332.426H54.8047ZM67.1875 324.867V327.641H55.7617V324.867H67.1875ZM59.6289 319.73H63.2422V340.766C63.2422 341.482 63.3529 342.022 63.5742 342.387C63.7956 342.751 64.082 342.992 64.4336 343.109C64.7852 343.227 65.1628 343.285 65.5664 343.285C65.8659 343.285 66.1784 343.259 66.5039 343.207C66.8424 343.142 67.0964 343.09 67.2656 343.051L67.2852 346C66.9987 346.091 66.6211 346.176 66.1523 346.254C65.6966 346.345 65.1432 346.391 64.4922 346.391C63.6068 346.391 62.793 346.215 62.0508 345.863C61.3086 345.512 60.7161 344.926 60.2734 344.105C59.8438 343.272 59.6289 342.152 59.6289 340.746V319.73ZM70.0781 335.668V335.219C70.0781 333.695 70.2995 332.283 70.7422 330.98C71.1849 329.665 71.8229 328.526 72.6562 327.562C73.4896 326.586 74.4987 325.831 75.6836 325.297C76.8685 324.75 78.1966 324.477 79.668 324.477C81.1523 324.477 82.487 324.75 83.6719 325.297C84.8698 325.831 85.8854 326.586 86.7188 327.562C87.5651 328.526 88.2096 329.665 88.6523 330.98C89.0951 332.283 89.3164 333.695 89.3164 335.219V335.668C89.3164 337.191 89.0951 338.604 88.6523 339.906C88.2096 341.208 87.5651 342.348 86.7188 343.324C85.8854 344.288 84.8763 345.043 83.6914 345.59C82.5195 346.124 81.1914 346.391 79.707 346.391C78.2227 346.391 76.888 346.124 75.7031 345.59C74.5182 345.043 73.5026 344.288 72.6562 343.324C71.8229 342.348 71.1849 341.208 70.7422 339.906C70.2995 338.604 70.0781 337.191 70.0781 335.668ZM73.6914 335.219V335.668C73.6914 336.723 73.8151 337.719 74.0625 338.656C74.3099 339.581 74.681 340.401 75.1758 341.117C75.6836 341.833 76.3151 342.4 77.0703 342.816C77.8255 343.22 78.7044 343.422 79.707 343.422C80.6966 343.422 81.5625 343.22 82.3047 342.816C83.0599 342.4 83.6849 341.833 84.1797 341.117C84.6745 340.401 85.0456 339.581 85.293 338.656C85.5534 337.719 85.6836 336.723 85.6836 335.668V335.219C85.6836 334.177 85.5534 333.194 85.293 332.27C85.0456 331.332 84.668 330.505 84.1602 329.789C83.6654 329.06 83.0404 328.487 82.2852 328.07C81.543 327.654 80.6706 327.445 79.668 327.445C78.6784 327.445 77.806 327.654 77.0508 328.07C76.3086 328.487 75.6836 329.06 75.1758 329.789C74.681 330.505 74.3099 331.332 74.0625 332.27C73.8151 333.194 73.6914 334.177 73.6914 335.219Z" fill="#1A202C"/>
<path d="M104.443 307.609H118.761C121.696 307.609 124.219 308.049 126.328 308.928C128.455 309.807 130.09 311.107 131.232 312.83C132.375 314.553 132.946 316.671 132.946 319.185C132.946 321.241 132.595 323.008 131.892 324.484C131.206 325.943 130.23 327.165 128.965 328.149C127.717 329.116 126.249 329.89 124.562 330.47L122.057 331.788H109.611L109.559 325.618H118.813C120.202 325.618 121.354 325.372 122.268 324.88C123.182 324.388 123.867 323.702 124.324 322.823C124.799 321.944 125.036 320.925 125.036 319.765C125.036 318.534 124.808 317.471 124.351 316.574C123.894 315.678 123.199 314.992 122.268 314.518C121.336 314.043 120.167 313.806 118.761 313.806H112.354V346H104.443V307.609ZM125.906 346L117.152 328.888L125.511 328.835L134.37 345.631V346H125.906ZM153.987 338.116C153.987 337.571 153.829 337.079 153.513 336.64C153.196 336.2 152.607 335.796 151.746 335.427C150.902 335.04 149.681 334.688 148.081 334.372C146.64 334.056 145.295 333.66 144.047 333.186C142.816 332.693 141.744 332.104 140.83 331.419C139.934 330.733 139.23 329.925 138.721 328.993C138.211 328.044 137.956 326.963 137.956 325.75C137.956 324.555 138.211 323.43 138.721 322.375C139.248 321.32 139.995 320.389 140.962 319.58C141.946 318.754 143.142 318.112 144.548 317.655C145.972 317.181 147.571 316.943 149.347 316.943C151.825 316.943 153.952 317.339 155.728 318.13C157.521 318.921 158.892 320.011 159.841 321.399C160.808 322.771 161.291 324.335 161.291 326.093H153.697C153.697 325.354 153.539 324.695 153.223 324.115C152.924 323.518 152.449 323.052 151.799 322.718C151.166 322.366 150.34 322.19 149.32 322.19C148.477 322.19 147.747 322.34 147.132 322.639C146.517 322.92 146.042 323.307 145.708 323.799C145.392 324.273 145.233 324.801 145.233 325.381C145.233 325.82 145.321 326.216 145.497 326.567C145.69 326.901 145.998 327.209 146.42 327.49C146.842 327.771 147.387 328.035 148.055 328.281C148.74 328.51 149.584 328.721 150.586 328.914C152.643 329.336 154.479 329.89 156.097 330.575C157.714 331.243 158.997 332.157 159.946 333.317C160.896 334.46 161.37 335.963 161.37 337.826C161.37 339.092 161.089 340.252 160.526 341.307C159.964 342.361 159.155 343.284 158.101 344.075C157.046 344.849 155.78 345.455 154.304 345.895C152.845 346.316 151.201 346.527 149.373 346.527C146.719 346.527 144.469 346.053 142.623 345.104C140.795 344.154 139.406 342.95 138.457 341.491C137.525 340.015 137.06 338.503 137.06 336.956H144.258C144.293 337.993 144.557 338.828 145.049 339.461C145.559 340.094 146.2 340.551 146.974 340.832C147.765 341.113 148.617 341.254 149.531 341.254C150.516 341.254 151.333 341.122 151.983 340.858C152.634 340.577 153.126 340.208 153.46 339.751C153.812 339.276 153.987 338.731 153.987 338.116ZM166.67 342.335C166.67 341.21 167.057 340.27 167.83 339.514C168.621 338.758 169.667 338.38 170.968 338.38C172.269 338.38 173.306 338.758 174.079 339.514C174.87 340.27 175.266 341.21 175.266 342.335C175.266 343.46 174.87 344.4 174.079 345.156C173.306 345.912 172.269 346.29 170.968 346.29C169.667 346.29 168.621 345.912 167.83 345.156C167.057 344.4 166.67 343.46 166.67 342.335ZM213.604 307.53V346H206.01V316.284L196.887 319.185V313.199L212.786 307.53H213.604ZM233.247 328.519L227.183 327.068L229.371 307.609H250.939V313.753H235.62L234.671 322.27C235.181 321.971 235.954 321.654 236.991 321.32C238.028 320.969 239.188 320.793 240.472 320.793C242.335 320.793 243.987 321.083 245.429 321.663C246.87 322.243 248.092 323.087 249.094 324.194C250.113 325.302 250.887 326.655 251.414 328.255C251.941 329.854 252.205 331.665 252.205 333.687C252.205 335.392 251.941 337.018 251.414 338.564C250.887 340.094 250.087 341.465 249.015 342.678C247.942 343.873 246.598 344.813 244.98 345.499C243.363 346.185 241.447 346.527 239.232 346.527C237.58 346.527 235.98 346.281 234.434 345.789C232.904 345.297 231.524 344.567 230.294 343.601C229.081 342.634 228.105 341.465 227.367 340.094C226.646 338.705 226.269 337.123 226.233 335.348H233.774C233.88 336.438 234.161 337.378 234.618 338.169C235.093 338.942 235.717 339.54 236.49 339.962C237.264 340.384 238.169 340.595 239.206 340.595C240.173 340.595 240.999 340.41 241.685 340.041C242.37 339.672 242.924 339.162 243.346 338.512C243.768 337.844 244.075 337.07 244.269 336.191C244.479 335.295 244.585 334.328 244.585 333.291C244.585 332.254 244.462 331.313 244.216 330.47C243.97 329.626 243.592 328.896 243.082 328.281C242.572 327.666 241.922 327.191 241.131 326.857C240.357 326.523 239.452 326.356 238.415 326.356C237.009 326.356 235.919 326.576 235.146 327.016C234.39 327.455 233.757 327.956 233.247 328.519ZM264.624 339.593L264.598 344.682C264.598 346.633 264.105 348.602 263.121 350.588C262.154 352.574 260.924 354.2 259.43 355.466L255.475 353.436C255.914 352.627 256.345 351.818 256.767 351.01C257.188 350.201 257.54 349.313 257.821 348.347C258.103 347.38 258.243 346.281 258.243 345.051V339.593H264.624ZM296.238 323.43V330.074C296.238 332.957 295.931 335.444 295.315 337.536C294.7 339.61 293.812 341.315 292.652 342.651C291.51 343.97 290.147 344.945 288.565 345.578C286.983 346.211 285.226 346.527 283.292 346.527C281.745 346.527 280.304 346.334 278.968 345.947C277.632 345.543 276.428 344.919 275.355 344.075C274.301 343.231 273.387 342.168 272.613 340.885C271.857 339.584 271.277 338.037 270.873 336.244C270.469 334.451 270.267 332.395 270.267 330.074V323.43C270.267 320.547 270.574 318.077 271.189 316.021C271.822 313.946 272.71 312.25 273.853 310.932C275.013 309.613 276.384 308.646 277.966 308.031C279.548 307.398 281.306 307.082 283.239 307.082C284.786 307.082 286.219 307.284 287.537 307.688C288.873 308.075 290.077 308.682 291.149 309.508C292.222 310.334 293.136 311.397 293.892 312.698C294.647 313.981 295.228 315.52 295.632 317.312C296.036 319.088 296.238 321.127 296.238 323.43ZM288.618 331.076V322.401C288.618 321.013 288.539 319.8 288.381 318.763C288.24 317.726 288.021 316.847 287.722 316.126C287.423 315.388 287.054 314.79 286.614 314.333C286.175 313.876 285.674 313.542 285.111 313.331C284.549 313.12 283.925 313.015 283.239 313.015C282.378 313.015 281.613 313.182 280.945 313.516C280.295 313.85 279.741 314.386 279.284 315.124C278.827 315.845 278.476 316.812 278.229 318.024C278.001 319.22 277.887 320.679 277.887 322.401V331.076C277.887 332.465 277.957 333.687 278.098 334.741C278.256 335.796 278.484 336.701 278.783 337.457C279.1 338.195 279.469 338.802 279.891 339.276C280.33 339.733 280.831 340.067 281.394 340.278C281.974 340.489 282.606 340.595 283.292 340.595C284.136 340.595 284.883 340.428 285.533 340.094C286.201 339.742 286.764 339.197 287.221 338.459C287.695 337.703 288.047 336.719 288.275 335.506C288.504 334.293 288.618 332.816 288.618 331.076ZM327.246 323.43V330.074C327.246 332.957 326.938 335.444 326.323 337.536C325.708 339.61 324.82 341.315 323.66 342.651C322.518 343.97 321.155 344.945 319.573 345.578C317.991 346.211 316.233 346.527 314.3 346.527C312.753 346.527 311.312 346.334 309.976 345.947C308.64 345.543 307.436 344.919 306.363 344.075C305.309 343.231 304.395 342.168 303.621 340.885C302.865 339.584 302.285 338.037 301.881 336.244C301.477 334.451 301.274 332.395 301.274 330.074V323.43C301.274 320.547 301.582 318.077 302.197 316.021C302.83 313.946 303.718 312.25 304.86 310.932C306.021 309.613 307.392 308.646 308.974 308.031C310.556 307.398 312.313 307.082 314.247 307.082C315.794 307.082 317.227 307.284 318.545 307.688C319.881 308.075 321.085 308.682 322.157 309.508C323.229 310.334 324.144 311.397 324.899 312.698C325.655 313.981 326.235 315.52 326.64 317.312C327.044 319.088 327.246 321.127 327.246 323.43ZM319.626 331.076V322.401C319.626 321.013 319.547 319.8 319.389 318.763C319.248 317.726 319.028 316.847 318.729 316.126C318.431 315.388 318.062 314.79 317.622 314.333C317.183 313.876 316.682 313.542 316.119 313.331C315.557 313.12 314.933 313.015 314.247 313.015C313.386 313.015 312.621 313.182 311.953 313.516C311.303 313.85 310.749 314.386 310.292 315.124C309.835 315.845 309.483 316.812 309.237 318.024C309.009 319.22 308.895 320.679 308.895 322.401V331.076C308.895 332.465 308.965 333.687 309.105 334.741C309.264 335.796 309.492 336.701 309.791 337.457C310.107 338.195 310.477 338.802 310.898 339.276C311.338 339.733 311.839 340.067 312.401 340.278C312.981 340.489 313.614 340.595 314.3 340.595C315.144 340.595 315.891 340.428 316.541 340.094C317.209 339.742 317.771 339.197 318.229 338.459C318.703 337.703 319.055 336.719 319.283 335.506C319.512 334.293 319.626 332.816 319.626 331.076ZM358.254 323.43V330.074C358.254 332.957 357.946 335.444 357.331 337.536C356.716 339.61 355.828 341.315 354.668 342.651C353.525 343.97 352.163 344.945 350.581 345.578C348.999 346.211 347.241 346.527 345.308 346.527C343.761 346.527 342.319 346.334 340.983 345.947C339.647 345.543 338.443 344.919 337.371 344.075C336.316 343.231 335.402 342.168 334.629 340.885C333.873 339.584 333.293 338.037 332.889 336.244C332.484 334.451 332.282 332.395 332.282 330.074V323.43C332.282 320.547 332.59 318.077 333.205 316.021C333.838 313.946 334.726 312.25 335.868 310.932C337.028 309.613 338.399 308.646 339.981 308.031C341.563 307.398 343.321 307.082 345.255 307.082C346.802 307.082 348.234 307.284 349.553 307.688C350.889 308.075 352.093 308.682 353.165 309.508C354.237 310.334 355.151 311.397 355.907 312.698C356.663 313.981 357.243 315.52 357.647 317.312C358.052 319.088 358.254 321.127 358.254 323.43ZM350.634 331.076V322.401C350.634 321.013 350.555 319.8 350.396 318.763C350.256 317.726 350.036 316.847 349.737 316.126C349.438 315.388 349.069 314.79 348.63 314.333C348.19 313.876 347.689 313.542 347.127 313.331C346.564 313.12 345.94 313.015 345.255 313.015C344.394 313.015 343.629 313.182 342.961 313.516C342.311 313.85 341.757 314.386 341.3 315.124C340.843 315.845 340.491 316.812 340.245 318.024C340.017 319.22 339.902 320.679 339.902 322.401V331.076C339.902 332.465 339.973 333.687 340.113 334.741C340.271 335.796 340.5 336.701 340.799 337.457C341.115 338.195 341.484 338.802 341.906 339.276C342.346 339.733 342.847 340.067 343.409 340.278C343.989 340.489 344.622 340.595 345.308 340.595C346.151 340.595 346.898 340.428 347.549 340.094C348.217 339.742 348.779 339.197 349.236 338.459C349.711 337.703 350.062 336.719 350.291 335.506C350.52 334.293 350.634 332.816 350.634 331.076Z" fill="#1A73E8"/>
</svg>
